<svg width="28.000000" height="36.000000" viewBox="0 0 28 36" fill="none" xmlns="http://www.w3.org/2000/svg" xmlns:xlink="http://www.w3.org/1999/xlink">
	<desc>
			Created with Pixso.
	</desc>
	<defs/>
	<path id="coolicon" d="M14 35.5C11.47 33.34 9.13 30.98 7 28.43C3.79 24.61 0 18.92 0 13.5C-0.01 7.84 3.4 2.73 8.64 0.56C13.87 -1.61 19.89 -0.41 23.9 3.6C26.53 6.22 28.01 9.79 28 13.5C28 18.92 24.19 24.61 21 28.43C18.86 30.98 16.52 33.34 14 35.5ZM14 7.5C11.85 7.5 9.87 8.64 8.8 10.5C7.73 12.36 7.73 14.64 8.8 16.5C9.87 18.35 11.85 19.5 14 19.5C17.31 19.5 20 16.81 20 13.5C20 10.19 17.31 7.5 14 7.5Z" fill="#ED3A86" fill-opacity="1.000000" fill-rule="evenodd"/>
</svg>
