<svg width="35.000000" height="34.000000" viewBox="0 0 35 34" fill="none" xmlns="http://www.w3.org/2000/svg" xmlns:xlink="http://www.w3.org/1999/xlink">
	<desc>
			Created with Pixso.
	</desc>
	<defs/>
	<path id="coolicon" d="M32.28 33.5C13.62 33.52 -0.55 19.6 -0.53 1.63C-0.53 0.45 0.45 -0.5 1.66 -0.5L7.43 -0.5C8.52 -0.5 9.44 0.27 9.6 1.31C9.98 3.81 10.73 6.24 11.82 8.53L12.04 9C12.36 9.65 12.14 10.43 11.54 10.85C9.75 12.09 9.07 14.59 10.46 16.54C12.21 18.98 14.41 21.12 16.93 22.82C18.93 24.17 21.5 23.51 22.78 21.77C23.21 21.18 24.02 20.98 24.69 21.28L25.17 21.5C27.53 22.56 30.03 23.29 32.6 23.66C33.68 23.81 34.47 24.71 34.47 25.76L34.47 31.37C34.47 32.54 33.49 33.5 32.28 33.5L32.28 33.5Z" fill="#ED3A86" fill-opacity="1.000000" fill-rule="evenodd"/>
</svg>
