<svg width="265.000000" height="41.000000" viewBox="0 0 265 41" fill="none" xmlns="http://www.w3.org/2000/svg" xmlns:xlink="http://www.w3.org/1999/xlink">
	<desc>
			Created with Pixso.
	</desc>
	<defs/>
	<path id="Разработано командой" d="M98.23 6.29C98.69 6.29 99.09 6.39 99.45 6.59C99.8 6.78 100.07 7.05 100.26 7.4C100.46 7.75 100.56 8.15 100.56 8.6C100.56 9.07 100.45 9.48 100.23 9.85C100.02 10.2 99.71 10.48 99.32 10.68C98.93 10.88 98.48 10.98 97.98 10.98C97.14 10.98 96.49 10.7 96.03 10.14Q95.34 9.31 95.34 7.74C95.34 6.77 95.55 6 95.97 5.43C96.38 4.87 97.02 4.49 97.88 4.31L100.12 3.83L100.29 4.85L98.25 5.26C97.66 5.38 97.23 5.59 96.94 5.88C96.65 6.17 96.48 6.58 96.43 7.1C96.65 6.84 96.91 6.64 97.22 6.5C97.52 6.36 97.86 6.29 98.23 6.29ZM176.56 5.48C176.07 5.48 175.69 5.37 175.43 5.14Q175.38 5.09 175.33 5.03L175.33 5.03Q175.05 4.7 175.05 4.15L175.8 4.15C175.8 4.37 175.87 4.54 176 4.66C176.13 4.79 176.31 4.86 176.55 4.86C176.78 4.86 176.96 4.79 177.09 4.66C177.23 4.54 177.3 4.37 177.31 4.15L178.08 4.15Q178.07 4.69 177.81 5.01Q177.75 5.08 177.68 5.14C177.42 5.37 177.05 5.48 176.56 5.48ZM70.01 4.55Q70.83 4.55 71.44 4.82C71.85 5 72.16 5.26 72.38 5.6Q72.4 5.63 72.43 5.67Q72.71 6.15 72.71 6.8C72.71 7.26 72.6 7.66 72.38 8.01C72.16 8.35 71.85 8.6 71.44 8.79Q70.83 9.06 70.01 9.06L68.58 9.06L68.58 10.89L67.4 10.89L67.4 4.55L70.01 4.55ZM69.96 8.06C70.47 8.06 70.86 7.95 71.12 7.74Q71.24 7.64 71.32 7.53Q71.52 7.24 71.52 6.8Q71.52 6.37 71.32 6.08L71.32 6.08Q71.24 5.96 71.12 5.87Q70.72 5.54 69.96 5.54L68.58 5.54L68.58 8.06L69.96 8.06ZM81.88 8.37C82.18 8.45 82.42 8.59 82.58 8.79C82.75 8.97 82.83 9.2 82.83 9.47C82.83 9.76 82.73 10.02 82.54 10.25C82.34 10.48 82.06 10.65 81.71 10.78C81.36 10.91 80.96 10.97 80.52 10.97Q80.01 10.97 79.52 10.86L79.52 10.86Q79.47 10.85 79.42 10.84C79.06 10.75 78.74 10.62 78.45 10.46L78.78 9.62C79.01 9.75 79.28 9.85 79.57 9.93C79.87 10 80.17 10.04 80.46 10.04C80.84 10.04 81.14 9.98 81.35 9.86C81.57 9.74 81.67 9.58 81.67 9.37Q81.67 9.25 81.62 9.15Q81.56 9.03 81.42 8.94C81.26 8.84 81.03 8.79 80.72 8.79L79.78 8.79L79.78 8.03L80.63 8.03C80.92 8.03 81.14 7.98 81.29 7.88C81.46 7.78 81.54 7.65 81.54 7.47C81.54 7.3 81.44 7.16 81.25 7.06C81.06 6.95 80.79 6.9 80.45 6.9C79.97 6.9 79.46 7.02 78.92 7.26L78.63 6.42C79.27 6.13 79.91 5.98 80.55 5.98C80.96 5.98 81.33 6.04 81.66 6.15C81.98 6.26 82.24 6.42 82.42 6.62C82.6 6.82 82.7 7.05 82.7 7.31C82.7 7.55 82.63 7.76 82.48 7.94C82.34 8.12 82.14 8.27 81.88 8.37ZM75.45 6Q76.52 6 77.08 6.51Q77.14 6.56 77.19 6.62Q77.65 7.12 77.65 8.05L77.65 10.89L76.59 10.89L76.59 10.3C76.45 10.51 76.25 10.67 75.99 10.79Q75.61 10.95 75.06 10.95C74.7 10.95 74.38 10.89 74.11 10.77C73.84 10.64 73.63 10.47 73.48 10.25C73.33 10.03 73.26 9.78 73.26 9.5C73.26 9.07 73.42 8.72 73.74 8.46Q74.23 8.06 75.27 8.06L76.52 8.06L76.52 7.99C76.52 7.65 76.42 7.39 76.21 7.21C76.02 7.03 75.72 6.94 75.32 6.94C75.05 6.94 74.78 6.98 74.51 7.07Q74.12 7.19 73.85 7.42L73.41 6.59C73.66 6.4 73.97 6.25 74.32 6.15Q74.86 6 75.45 6ZM86.69 6C87.16 6 87.58 6.1 87.95 6.3Q88.22 6.45 88.43 6.66Q88.66 6.88 88.83 7.17Q88.84 7.19 88.85 7.21Q89.14 7.76 89.14 8.47C89.14 8.96 89.04 9.39 88.83 9.77C88.62 10.15 88.32 10.44 87.95 10.64C87.58 10.85 87.16 10.95 86.69 10.95Q86.03 10.95 85.56 10.65Q85.33 10.51 85.14 10.3L85.14 12.64L84.01 12.64L84.01 6.05L85.09 6.05L85.09 6.68C85.27 6.46 85.5 6.28 85.78 6.17C86.05 6.05 86.36 6 86.69 6ZM92.01 6C92.72 6 93.27 6.17 93.64 6.51C94.02 6.85 94.21 7.36 94.21 8.05L94.21 10.89L93.14 10.89L93.14 10.3C93.01 10.51 92.81 10.67 92.55 10.79C92.29 10.9 91.98 10.95 91.62 10.95C91.26 10.95 90.94 10.89 90.67 10.77C90.4 10.64 90.19 10.47 90.04 10.25C89.89 10.03 89.82 9.78 89.82 9.5C89.82 9.07 89.98 8.72 90.3 8.46Q90.79 8.06 91.83 8.06L93.08 8.06L93.08 7.99C93.08 7.65 92.98 7.39 92.77 7.21C92.57 7.03 92.27 6.94 91.88 6.94C91.6 6.94 91.34 6.98 91.07 7.07C90.81 7.15 90.59 7.27 90.41 7.42L89.96 6.59C90.22 6.4 90.52 6.25 90.88 6.15C91.24 6.05 91.61 6 92.01 6ZM103.81 10.95C103.32 10.95 102.88 10.85 102.49 10.63C102.1 10.42 101.79 10.13 101.56 9.76C101.35 9.37 101.24 8.95 101.24 8.47C101.24 7.99 101.35 7.57 101.56 7.19C101.79 6.82 102.1 6.52 102.49 6.31C102.88 6.1 103.32 6 103.81 6C104.31 6 104.75 6.1 105.14 6.31C105.54 6.52 105.84 6.82 106.06 7.19C106.28 7.57 106.39 7.99 106.39 8.47C106.39 8.95 106.28 9.37 106.06 9.76C105.84 10.13 105.54 10.42 105.14 10.63C104.75 10.85 104.31 10.95 103.81 10.95ZM113.79 6C114.5 6 115.04 6.17 115.42 6.51Q115.48 6.56 115.53 6.62Q115.99 7.12 115.99 8.05L115.99 10.89L114.92 10.89L114.92 10.3C114.78 10.51 114.58 10.67 114.32 10.79C114.07 10.9 113.76 10.95 113.4 10.95C113.04 10.95 112.72 10.89 112.45 10.77C112.18 10.64 111.97 10.47 111.81 10.25C111.67 10.03 111.6 9.78 111.6 9.5C111.6 9.07 111.76 8.72 112.08 8.46C112.4 8.19 112.91 8.06 113.61 8.06L114.86 8.06L114.86 7.99C114.86 7.65 114.76 7.39 114.55 7.21C114.35 7.03 114.05 6.94 113.65 6.94C113.38 6.94 113.11 6.98 112.85 7.07C112.59 7.15 112.37 7.27 112.19 7.42L111.74 6.59C112 6.4 112.3 6.25 112.66 6.15C113.01 6.05 113.39 6 113.79 6ZM125.76 10.95C125.28 10.95 124.83 10.85 124.44 10.63C124.05 10.42 123.74 10.13 123.52 9.76Q123.46 9.65 123.41 9.54L123.41 9.54Q123.19 9.05 123.19 8.47Q123.19 7.86 123.43 7.37Q123.47 7.28 123.52 7.19C123.74 6.82 124.05 6.52 124.44 6.31C124.83 6.1 125.28 6 125.76 6C126.26 6 126.7 6.1 127.1 6.31Q127.45 6.5 127.71 6.78L127.71 6.78Q127.88 6.97 128.01 7.19C128.23 7.57 128.35 7.99 128.35 8.47C128.35 8.95 128.23 9.37 128.01 9.76Q127.88 9.98 127.71 10.17Q127.45 10.44 127.1 10.63C126.7 10.85 126.26 10.95 125.76 10.95ZM139.56 10.95C139.07 10.95 138.63 10.85 138.24 10.63Q137.9 10.45 137.64 10.19Q137.46 9.99 137.32 9.76C137.1 9.37 136.99 8.95 136.99 8.47C136.99 7.99 137.1 7.57 137.32 7.19Q137.46 6.96 137.64 6.76L137.64 6.76Q137.9 6.5 138.24 6.31C138.63 6.1 139.07 6 139.56 6C140.06 6 140.5 6.1 140.89 6.31C141.29 6.52 141.59 6.82 141.81 7.19C142.03 7.57 142.14 7.99 142.14 8.47C142.14 8.95 142.03 9.37 141.81 9.76C141.59 10.13 141.29 10.42 140.89 10.63C140.5 10.85 140.06 10.95 139.56 10.95ZM152.36 6C153.08 6 153.62 6.17 153.99 6.51C154.37 6.85 154.56 7.36 154.56 8.05L154.56 10.89L153.49 10.89L153.49 10.3C153.36 10.51 153.16 10.67 152.9 10.79C152.64 10.9 152.34 10.95 151.97 10.95C151.61 10.95 151.29 10.89 151.02 10.77C150.75 10.64 150.54 10.47 150.39 10.25C150.24 10.03 150.17 9.78 150.17 9.5C150.17 9.07 150.33 8.72 150.65 8.46C150.98 8.19 151.49 8.06 152.18 8.06L153.43 8.06L153.43 7.99C153.43 7.65 153.33 7.39 153.12 7.21C152.92 7.03 152.63 6.94 152.23 6.94C151.95 6.94 151.69 6.98 151.42 7.07C151.16 7.15 150.94 7.27 150.76 7.42L150.32 6.59C150.57 6.4 150.87 6.25 151.23 6.15C151.59 6.05 151.96 6 152.36 6ZM170.51 10.95C170.02 10.95 169.58 10.85 169.19 10.63Q168.85 10.45 168.59 10.19Q168.41 9.99 168.27 9.76C168.05 9.37 167.94 8.95 167.94 8.47C167.94 7.99 168.05 7.57 168.27 7.19Q168.41 6.96 168.59 6.76L168.59 6.76Q168.85 6.5 169.19 6.31C169.58 6.1 170.02 6 170.51 6C171.01 6 171.45 6.1 171.84 6.31C172.24 6.52 172.54 6.82 172.76 7.19Q172.82 7.3 172.87 7.41L172.87 7.41Q173.09 7.89 173.09 8.47Q173.09 9.03 172.89 9.49Q172.83 9.63 172.76 9.76C172.54 10.13 172.24 10.42 171.84 10.63C171.45 10.85 171.01 10.95 170.51 10.95ZM111.17 7.01L109.47 7.01L109.47 10.89L108.34 10.89L108.34 7.01L106.64 7.01L106.64 6.05L111.17 6.05L111.17 7.01ZM117.39 6.05L118.52 6.05L118.52 8.02L120.96 8.02L120.96 6.05L122.09 6.05L122.09 10.89L120.96 10.89L120.96 8.98L118.52 8.98L118.52 10.89L117.39 10.89L117.39 6.05ZM133.98 8.95L133.1 8.95L133.1 10.89L131.97 10.89L131.97 6.05L133.1 6.05L133.1 8.01L134 8.01L135.44 6.05L136.65 6.05L134.89 8.38L136.77 10.89L135.44 10.89L133.98 8.95ZM148.02 10.89L148.02 7.68L146.39 10.38L145.9 10.38L144.3 7.67L144.3 10.89L143.26 10.89L143.26 6.05L144.45 6.05L146.17 9.08L147.97 6.05L149.03 6.05L149.04 10.89L148.02 10.89ZM155.96 6.05L157.1 6.05L157.1 8.02L159.53 8.02L159.53 6.05L160.67 6.05L160.67 10.89L159.53 10.89L159.53 8.98L157.1 8.98L157.1 10.89L155.96 10.89L155.96 6.05ZM167.35 9.93L167.35 11.97L166.29 11.97L166.29 10.89L162.55 10.89L162.55 11.97L161.5 11.97L161.5 9.93L161.73 9.93C162.04 9.92 162.25 9.72 162.35 9.34C162.47 8.95 162.54 8.41 162.58 7.71L162.64 6.05L166.63 6.05L166.63 9.93L167.35 9.93ZM174.21 6.05L175.34 6.05L175.34 9.24L178.02 6.05L179.05 6.05L179.05 10.89L177.92 10.89L177.92 7.7L175.25 10.89L174.21 10.89L174.21 6.05ZM86.56 9.98C86.98 9.98 87.32 9.84 87.59 9.57C87.86 9.29 87.99 8.92 87.99 8.47C87.99 8.02 87.86 7.65 87.59 7.37C87.32 7.1 86.98 6.96 86.56 6.96C86.29 6.96 86.05 7.02 85.83 7.15C85.61 7.27 85.44 7.44 85.31 7.67C85.19 7.9 85.12 8.17 85.12 8.47C85.12 8.77 85.19 9.04 85.31 9.27C85.44 9.5 85.61 9.67 85.83 9.8C86.05 9.92 86.29 9.98 86.56 9.98ZM103.81 9.98Q104.2 9.98 104.5 9.82Q104.69 9.73 104.84 9.57C105.12 9.29 105.25 8.92 105.25 8.47C105.25 8.02 105.12 7.65 104.84 7.37Q104.69 7.21 104.5 7.11Q104.2 6.96 103.81 6.96Q103.43 6.96 103.12 7.11Q102.94 7.21 102.78 7.37C102.51 7.65 102.38 8.02 102.38 8.47C102.38 8.92 102.51 9.29 102.78 9.57Q102.94 9.73 103.12 9.82Q103.43 9.98 103.81 9.98ZM125.76 9.98C126.18 9.98 126.53 9.84 126.8 9.57C127.07 9.29 127.2 8.92 127.2 8.47C127.2 8.02 127.07 7.65 126.8 7.37C126.53 7.1 126.18 6.96 125.76 6.96Q125.38 6.96 125.08 7.11Q124.89 7.21 124.73 7.37C124.47 7.65 124.33 8.02 124.33 8.47C124.33 8.92 124.47 9.29 124.73 9.57Q124.89 9.73 125.08 9.82Q125.38 9.98 125.76 9.98ZM139.56 9.98C139.98 9.98 140.32 9.84 140.6 9.57C140.87 9.29 141 8.92 141 8.47C141 8.02 140.87 7.65 140.6 7.37C140.32 7.1 139.98 6.96 139.56 6.96C139.15 6.96 138.8 7.1 138.53 7.37Q138.44 7.46 138.38 7.57L138.38 7.57Q138.13 7.94 138.13 8.47Q138.13 9 138.38 9.37Q138.44 9.47 138.53 9.57C138.8 9.84 139.15 9.98 139.56 9.98ZM170.51 9.98C170.93 9.98 171.27 9.84 171.54 9.57C171.82 9.29 171.95 8.92 171.95 8.47C171.95 8.02 171.82 7.65 171.54 7.37C171.27 7.1 170.93 6.96 170.51 6.96C170.1 6.96 169.75 7.1 169.48 7.37C169.21 7.65 169.08 8.02 169.08 8.47C169.08 8.92 169.21 9.29 169.48 9.57C169.75 9.84 170.1 9.98 170.51 9.98ZM163.61 7.79Q163.58 8.62 163.48 9.15C163.41 9.5 163.29 9.76 163.12 9.93L165.5 9.93L165.5 7.01L163.64 7.01L163.61 7.79ZM98 10.06C98.42 10.06 98.76 9.93 99.01 9.66C99.27 9.39 99.4 9.05 99.4 8.63C99.4 8.22 99.27 7.88 99.01 7.63C98.76 7.37 98.42 7.25 98 7.25C97.58 7.25 97.24 7.37 96.98 7.63Q96.87 7.73 96.8 7.86Q96.59 8.18 96.59 8.63C96.59 9.05 96.72 9.4 96.98 9.66C97.25 9.93 97.59 10.06 98 10.06ZM75.3 10.13C75.58 10.13 75.83 10.06 76.05 9.94Q76.23 9.83 76.34 9.69Q76.46 9.55 76.52 9.37L76.52 8.81L75.35 8.81Q74.67 8.81 74.47 9.13Q74.38 9.26 74.38 9.46C74.38 9.66 74.46 9.82 74.62 9.95C74.78 10.07 75.01 10.13 75.3 10.13ZM91.86 10.13C92.14 10.13 92.39 10.06 92.61 9.94C92.83 9.8 92.99 9.62 93.08 9.37L93.08 8.81L91.91 8.81Q91.23 8.81 91.02 9.13Q90.93 9.26 90.93 9.46C90.93 9.66 91.02 9.82 91.18 9.95C91.34 10.07 91.57 10.13 91.86 10.13ZM113.63 10.13C113.92 10.13 114.17 10.06 114.39 9.94Q114.56 9.83 114.68 9.69Q114.79 9.55 114.86 9.37L114.86 8.81L113.69 8.81C113.04 8.81 112.71 9.03 112.71 9.46C112.71 9.66 112.79 9.82 112.96 9.95C113.12 10.07 113.35 10.13 113.63 10.13ZM152.21 10.13C152.49 10.13 152.74 10.06 152.96 9.94C153.18 9.8 153.34 9.62 153.43 9.37L153.43 8.81L152.26 8.81C151.61 8.81 151.28 9.03 151.28 9.46C151.28 9.66 151.37 9.82 151.53 9.95C151.69 10.07 151.92 10.13 152.21 10.13Z" fill="#FFFFFF" fill-opacity="1.000000" fill-rule="evenodd"/>
	<path id="Vector" d="M68.04 20.59L72.82 20.59L79.43 40.25L75.03 40.25L73.71 36.24L67.14 36.24L65.83 40.25L61.42 40.25L68.04 20.59ZM72.48 32.49L70.41 26.21L68.36 32.49L72.48 32.49ZM80.95 20.59L85.29 20.59L85.29 36.04L93.58 36.04L93.58 40.25L80.95 40.25L80.95 20.59ZM101.42 20.59L106.2 20.59L112.81 40.25L108.41 40.25L107.09 36.24L100.52 36.24L99.21 40.25L94.8 40.25L101.42 20.59ZM105.86 32.49L103.8 26.21L101.74 32.49L105.86 32.49ZM114.34 36.04L122.71 24.8L114.34 24.8L114.34 20.59L127.76 20.59L127.76 24.8L119.37 36.04L127.76 36.04L127.76 40.25L114.34 40.25L114.34 36.04ZM135.91 20.59L140.69 20.59L147.3 40.25L142.9 40.25L141.57 36.24L135.01 36.24L133.7 40.25L129.29 40.25L135.91 20.59ZM140.35 32.49L138.28 26.21L136.23 32.49L140.35 32.49ZM162.89 29.02C162.89 30.04 162.65 30.92 162.17 31.64C161.7 32.37 161.04 32.89 160.19 33.2L163.76 40.25L159.01 40.25L155.74 33.49L153.16 33.49L153.16 40.25L148.82 40.25L148.82 20.59L158.42 20.59C159.78 20.59 160.86 21 161.68 21.8C162.48 22.62 162.89 23.7 162.89 25.06L162.89 29.02ZM153.16 29.6L157.6 29.6C157.93 29.6 158.17 29.53 158.33 29.37C158.48 29.23 158.55 28.99 158.55 28.66L158.55 25.75C158.55 25.42 158.48 25.17 158.33 25.02C158.17 24.87 157.93 24.8 157.6 24.8L153.16 24.8L153.16 29.6ZM177.82 32.41C176.46 32.41 175.38 32.01 174.58 31.19C173.76 30.39 173.35 29.3 173.35 27.95L173.35 25.06C173.35 23.7 173.76 22.62 174.58 21.8C175.38 21 176.46 20.59 177.82 20.59L183.09 20.59C184.45 20.59 185.54 21 186.35 21.8C187.16 22.62 187.56 23.7 187.56 25.06L187.56 26.4L183.22 26.4L183.22 25.73C183.22 25.39 183.15 25.15 183.01 25C182.85 24.86 182.61 24.79 182.28 24.79L178.64 24.79C178.31 24.79 178.07 24.86 177.92 25C177.77 25.15 177.69 25.39 177.69 25.73L177.69 27.39C177.69 27.73 177.77 27.97 177.92 28.12C178.07 28.27 178.31 28.34 178.64 28.34L183.09 28.34C184.45 28.34 185.54 28.74 186.35 29.55C187.16 30.36 187.56 31.45 187.56 32.81L187.56 35.78C187.56 37.14 187.16 38.22 186.35 39.02C185.54 39.84 184.45 40.25 183.09 40.25L177.82 40.25C176.46 40.25 175.38 39.84 174.58 39.02C173.76 38.22 173.35 37.14 173.35 35.78L173.35 34.38L177.69 34.38L177.69 35.11C177.69 35.45 177.77 35.69 177.92 35.84C178.07 35.98 178.31 36.05 178.64 36.05L182.28 36.05C182.61 36.05 182.85 35.98 183.01 35.84C183.15 35.69 183.22 35.45 183.22 35.11L183.22 33.36C183.22 33.02 183.15 32.78 183.01 32.63C182.85 32.49 182.61 32.41 182.28 32.41L177.82 32.41ZM195.57 24.8L190.31 24.8L190.31 20.59L205.16 20.59L205.16 24.8L199.91 24.8L199.91 40.25L195.57 40.25L195.57 24.8ZM221.88 35.78C221.88 37.14 221.47 38.22 220.67 39.02C219.85 39.84 218.76 40.25 217.41 40.25L212.4 40.25C211.04 40.25 209.96 39.84 209.15 39.02C208.34 38.22 207.93 37.14 207.93 35.78L207.93 20.59L212.27 20.59L212.27 35.09C212.27 35.42 212.34 35.66 212.5 35.81C212.65 35.96 212.88 36.04 213.21 36.04L216.58 36.04C216.92 36.04 217.16 35.97 217.32 35.82C217.46 35.68 217.54 35.43 217.54 35.09L217.54 20.59L221.88 20.59L221.88 35.78ZM239.18 35.78C239.18 37.14 238.78 38.22 237.98 39.02C237.17 39.84 236.09 40.25 234.73 40.25L225.22 40.25L225.22 20.59L234.73 20.59C236.09 20.59 237.17 21 237.98 21.8C238.78 22.62 239.18 23.7 239.18 25.06L239.18 35.78ZM233.9 36.04C234.24 36.04 234.48 35.96 234.63 35.81C234.77 35.66 234.85 35.42 234.85 35.09L234.85 25.75C234.85 25.42 234.77 25.17 234.63 25.02C234.48 24.87 234.24 24.8 233.9 24.8L229.56 24.8L229.56 36.04L233.9 36.04ZM242.91 20.59L247.25 20.59L247.25 40.25L242.91 40.25L242.91 20.59ZM265 35.78C265 37.14 264.59 38.22 263.79 39.02C262.98 39.84 261.9 40.25 260.54 40.25L255.45 40.25C254.09 40.25 253 39.84 252.2 39.02C251.38 38.22 250.98 37.14 250.98 35.78L250.98 25.06C250.98 23.7 251.38 22.62 252.2 21.8C253 21 254.09 20.59 255.45 20.59L260.54 20.59C261.9 20.59 262.98 21 263.79 21.8C264.59 22.62 265 23.7 265 25.06L265 35.78ZM255.31 35.09C255.31 35.42 255.39 35.66 255.55 35.81C255.69 35.96 255.93 36.04 256.26 36.04L259.71 36.04C260.05 36.04 260.29 35.96 260.44 35.81C260.58 35.66 260.66 35.42 260.66 35.09L260.66 25.75C260.66 25.42 260.58 25.17 260.44 25.02C260.29 24.87 260.05 24.8 259.71 24.8L256.26 24.8C255.93 24.8 255.69 24.87 255.55 25.02C255.39 25.17 255.31 25.42 255.31 25.75L255.31 35.09Z" fill="#FFFFFF" fill-opacity="1.000000" fill-rule="nonzero"/>
	<path id="Vector" d="M0 39.78L17.82 -0.61L29.07 -0.61L37.86 19.81L27.13 19.81L21.11 4.99L25.61 4.99L18.18 23.51L28.6 23.51L31.93 31.93L14.8 31.93L11.65 39.78L0 39.78Z" fill="#FFFFFF" fill-opacity="1.000000" fill-rule="nonzero"/>
	<path id="Vector" d="M44.77 35.63L46.58 39.78L35.05 39.78L33.41 35.63L44.77 35.63Z" fill="#E5097F" fill-opacity="1.000000" fill-rule="nonzero"/>
</svg>
