<svg width="44.000000" height="27.000000" viewBox="0 0 44 27" fill="none" xmlns="http://www.w3.org/2000/svg" xmlns:xlink="http://www.w3.org/1999/xlink">
	<desc>
			Created with Pixso.
	</desc>
	<defs/>
	<path id="Vector" d="M22.18 8.66C22 8.67 21.82 8.75 21.69 8.88L17.9 12.68L15.58 10.34C14.92 9.66 13.87 10.71 14.55 11.37L17.39 14.23C17.68 14.51 18.13 14.51 18.42 14.23L22.71 9.91C23.18 9.45 22.84 8.66 22.18 8.66L22.18 8.66ZM0.71 14.44L5.01 14.44C5.41 14.44 5.73 14.76 5.73 15.16C5.73 15.56 5.41 15.88 5.01 15.88L0.71 15.88C0.31 15.88 0 15.56 0 15.16C0 14.76 0.31 14.44 0.71 14.44ZM0.71 8.66L5.01 8.66C5.41 8.66 5.73 8.98 5.73 9.38C5.73 9.78 5.41 10.11 5.01 10.11L0.71 10.11C0.31 10.11 0 9.78 0 9.38C0 8.98 0.31 8.66 0.71 8.66ZM0.71 2.88L5.01 2.88C5.41 2.88 5.73 3.21 5.73 3.61C5.73 4.01 5.41 4.33 5.01 4.33L0.71 4.33C0.31 4.33 0 4.01 0 3.61C0 3.21 0.31 2.88 0.71 2.88ZM35.11 18.77C33.14 18.77 31.53 20.4 31.53 22.38C31.53 24.37 33.14 26 35.11 26C37.08 26 38.7 24.37 38.7 22.38C38.7 20.4 37.08 18.77 35.11 18.77ZM35.11 20.22C36.31 20.22 37.26 21.18 37.26 22.38C37.26 23.59 36.31 24.55 35.11 24.55C33.92 24.55 32.96 23.59 32.96 22.38C32.96 21.18 33.92 20.22 35.11 20.22ZM16.48 18.77C14.51 18.77 12.89 20.4 12.89 22.38C12.89 24.37 14.51 26 16.48 26C18.45 26 20.06 24.37 20.06 22.38C20.06 20.4 18.45 18.77 16.48 18.77ZM16.48 20.22C17.67 20.22 18.63 21.18 18.63 22.38C18.63 23.59 17.67 24.55 16.48 24.55C15.28 24.55 14.33 23.59 14.33 22.38C14.33 21.18 15.28 20.22 16.48 20.22ZM9.31 0C8.13 0 7.16 0.97 7.16 2.16L7.16 18.05C7.16 19.24 8.13 20.22 9.31 20.22L12.18 20.22C13.15 20.23 13.15 18.76 12.18 18.77L9.31 18.77C8.9 18.77 8.6 18.46 8.6 18.05L8.6 2.16C8.6 1.75 8.9 1.44 9.31 1.44L27.95 1.44C28.35 1.44 28.66 1.75 28.66 2.16L28.66 18.77L20.78 18.77C19.83 18.77 19.85 20.23 20.78 20.22L30.81 20.22C31.76 20.22 31.75 18.77 30.81 18.77L30.1 18.77L30.1 5.77L36.15 5.77L41.56 14.29L41.56 18.05C41.56 18.46 41.26 18.77 40.85 18.77L39.41 18.77C38.47 18.77 38.47 20.22 39.41 20.22L40.85 20.22C42.02 20.22 43 19.24 43 18.05L43 14.08C43 13.94 42.96 13.8 42.88 13.69L37.15 4.66C37.02 4.45 36.79 4.33 36.55 4.33L30.1 4.33L30.1 2.16C30.1 0.97 29.12 0 27.95 0L9.31 0Z" fill="#FFFFFF" fill-opacity="1.000000" fill-rule="nonzero"/>
	<path id="Vector" d="M21.69 8.88L17.9 12.68L15.58 10.34C14.92 9.66 13.87 10.71 14.55 11.37L17.39 14.23C17.68 14.51 18.13 14.51 18.42 14.23L22.71 9.91C23.18 9.45 22.84 8.66 22.18 8.66L22.18 8.66C22 8.67 21.82 8.75 21.69 8.88ZM5.01 14.44C5.41 14.44 5.73 14.76 5.73 15.16C5.73 15.56 5.41 15.88 5.01 15.88L0.71 15.88C0.31 15.88 0 15.56 0 15.16C0 14.76 0.31 14.44 0.71 14.44L5.01 14.44ZM5.01 8.66C5.41 8.66 5.73 8.98 5.73 9.38C5.73 9.78 5.41 10.11 5.01 10.11L0.71 10.11C0.31 10.11 0 9.78 0 9.38C0 8.98 0.31 8.66 0.71 8.66L5.01 8.66ZM5.01 2.88C5.41 2.88 5.73 3.21 5.73 3.61C5.73 4.01 5.41 4.33 5.01 4.33L0.71 4.33C0.31 4.33 0 4.01 0 3.61C0 3.21 0.31 2.88 0.71 2.88L5.01 2.88ZM31.53 22.38C31.53 24.37 33.14 26 35.11 26C37.08 26 38.7 24.37 38.7 22.38C38.7 20.4 37.08 18.77 35.11 18.77C33.14 18.77 31.53 20.4 31.53 22.38ZM37.26 22.38C37.26 23.59 36.31 24.55 35.11 24.55C33.92 24.55 32.96 23.59 32.96 22.38C32.96 21.18 33.92 20.22 35.11 20.22C36.31 20.22 37.26 21.18 37.26 22.38ZM12.89 22.38C12.89 24.37 14.51 26 16.48 26C18.45 26 20.06 24.37 20.06 22.38C20.06 20.4 18.45 18.77 16.48 18.77C14.51 18.77 12.89 20.4 12.89 22.38ZM18.63 22.38C18.63 23.59 17.67 24.55 16.48 24.55C15.28 24.55 14.33 23.59 14.33 22.38C14.33 21.18 15.28 20.22 16.48 20.22C17.67 20.22 18.63 21.18 18.63 22.38ZM7.16 2.16L7.16 18.05C7.16 19.24 8.13 20.22 9.31 20.22L12.18 20.22C13.15 20.23 13.15 18.76 12.18 18.77L9.31 18.77C8.9 18.77 8.6 18.46 8.6 18.05L8.6 2.16C8.6 1.75 8.9 1.44 9.31 1.44L27.95 1.44C28.35 1.44 28.66 1.75 28.66 2.16L28.66 18.77L20.78 18.77C19.83 18.77 19.85 20.23 20.78 20.22L30.81 20.22C31.76 20.22 31.75 18.77 30.81 18.77L30.1 18.77L30.1 5.77L36.15 5.77L41.56 14.29L41.56 18.05C41.56 18.46 41.26 18.77 40.85 18.77L39.41 18.77C38.47 18.77 38.47 20.22 39.41 20.22L40.85 20.22C42.02 20.22 43 19.24 43 18.05L43 14.08C43 13.94 42.96 13.8 42.88 13.69L37.15 4.66C37.02 4.45 36.79 4.33 36.55 4.33L30.1 4.33L30.1 2.16C30.1 0.97 29.12 0 27.95 0L9.31 0C8.13 0 7.16 0.97 7.16 2.16Z" stroke="#FFFFFF" stroke-opacity="1.000000" stroke-width="1.000000"/>
</svg>
