<svg width="22.000000" height="22.000000" viewBox="0 0 22 22" fill="none" xmlns="http://www.w3.org/2000/svg" xmlns:xlink="http://www.w3.org/1999/xlink">
	<desc>
			Created with Pixso.
	</desc>
	<defs/>
	<path id="coolicon" d="M22 22L16.5 22L16.5 16.5L22 16.5L22 22ZM13.75 22L8.25 22L8.25 16.5L13.75 16.5L13.75 22ZM5.5 22L0 22L0 16.5L5.5 16.5L5.5 22ZM22 13.75L16.5 13.75L16.5 8.25L22 8.25L22 13.75ZM13.75 13.75L8.25 13.75L8.25 8.25L13.75 8.25L13.75 13.75ZM5.5 13.75L0 13.75L0 8.25L5.5 8.25L5.5 13.75ZM22 5.5L16.5 5.5L16.5 0L22 0L22 5.5ZM13.75 5.5L8.25 5.5L8.25 0L13.75 0L13.75 5.5ZM5.5 5.5L0 5.5L0 0L5.5 0L5.5 5.5Z" fill="#FFFFFF" fill-opacity="1.000000" fill-rule="nonzero"/>
</svg>
