<svg width="32.000000" height="29.000000" viewBox="0 0 32 29" fill="none" xmlns="http://www.w3.org/2000/svg" xmlns:xlink="http://www.w3.org/1999/xlink">
	<desc>
			Created with Pixso.
	</desc>
	<defs/>
	<path id="Vector" d="M29.65 -0.56L2.34 -0.56C1.05 -0.56 0 0.49 0 1.78L0 17.14L0 19.04L0 21.84C0 23.13 1.05 24.18 2.34 24.18L10.75 24.18L10.39 26.65L8.58 26.65L8.58 28.55L10.11 28.55L21.88 28.55L23.41 28.55L23.41 26.65L21.6 26.65L21.24 24.18L29.65 24.18C30.94 24.18 32 23.13 32 21.84L32 19.04L32 17.14L32 1.78C32 0.49 30.94 -0.56 29.65 -0.56ZM12.31 26.65L12.67 24.18L19.32 24.18L19.68 26.65L12.31 26.65ZM30.09 21.84C30.09 22.08 29.89 22.28 29.65 22.28L20.97 22.28L11.02 22.28L2.34 22.28C2.1 22.28 1.9 22.08 1.9 21.84L1.9 19.04L30.09 19.04L30.09 21.84L30.09 21.84ZM30.09 17.14L1.9 17.14L1.9 1.78C1.9 1.54 2.1 1.34 2.34 1.34L29.65 1.34C29.89 1.34 30.09 1.54 30.09 1.78L30.09 17.14L30.09 17.14Z" fill="#FFFFFF" fill-opacity="1.000000" fill-rule="nonzero"/>
</svg>
