<svg width="31.000000" height="31.000000" viewBox="0 0 31 31" fill="none" xmlns="http://www.w3.org/2000/svg" xmlns:xlink="http://www.w3.org/1999/xlink">
	<desc>
			Created with Pixso.
	</desc>
	<defs>
		<clipPath id="clip13_606">
			<rect id="telephone-call-telephone-svgrepo-com 1" width="31.000000" height="31.000000" fill="white" fill-opacity="0"/>
		</clipPath>
	</defs>
	<rect id="telephone-call-telephone-svgrepo-com 1" width="31.000000" height="31.000000" fill="#FFFFFF" fill-opacity="0"/>
	<g clip-path="url(#clip13_606)">
		<path id="Vector" d="M28.41 0L16.78 0C15.35 0 14.2 1.16 14.2 2.58L14.2 9.39C14.2 10.52 14.91 11.48 15.92 11.83L15.92 15.27C16.04 16.52 17.21 16.05 17.38 15.89L21.41 11.98L28.41 11.98C29.84 11.98 31 10.82 31 9.39L31 2.58C31 1.16 29.84 0 28.41 0ZM29.27 9.39C29.27 9.87 28.89 10.26 28.41 10.26L21.06 10.26C20.84 10.26 20.62 10.34 20.46 10.5L17.64 13.24L17.64 11.12C17.64 10.65 17.26 10.26 16.78 10.26C16.3 10.26 15.92 9.87 15.92 9.39L15.92 2.58C15.92 2.11 16.3 1.72 16.78 1.72L28.41 1.72C28.89 1.72 29.27 2.1 29.27 2.58L29.27 9.39Z" fill="#FFFFFF" fill-opacity="1.000000" fill-rule="nonzero"/>
		<path id="Vector" d="M26.01 24.46L21.75 20.21C21.26 19.72 19.58 18.73 18.1 20.21L15.88 22.42C15.74 22.57 15.5 22.64 15.16 22.64C14.18 22.64 12.44 21.89 10.76 20.23C9.73 19.2 8.93 18 8.56 16.93C8.27 16.09 8.27 15.41 8.57 15.11L10.78 12.9C11.79 11.9 11.79 10.25 10.78 9.25L6.53 4.98C6.04 4.49 4.38 3.47 2.87 4.98L1.47 6.38C-0.19 8.04 -0.46 10.84 0.72 14.24C1.83 17.43 4.1 20.86 7.12 23.88C11.5 28.26 16.67 30.99 20.59 30.99C22.26 30.99 23.65 30.48 24.61 29.52L26.01 28.12C27.02 27.11 27.02 25.47 26.01 24.46ZM24.79 26.9L23.39 28.3C22.74 28.95 21.8 29.27 20.58 29.27C17.15 29.27 12.34 26.68 8.33 22.66C5.49 19.82 3.37 16.63 2.34 13.68C1.4 10.97 1.53 8.75 2.69 7.59L4.09 6.19C4.58 5.7 5.14 6.03 5.31 6.19L9.56 10.45C9.9 10.79 9.9 11.33 9.56 11.67L7.35 13.88C6.55 14.68 6.41 15.96 6.94 17.49C7.4 18.8 8.32 20.21 9.55 21.43C11.36 23.24 13.51 24.36 15.16 24.36C15.96 24.36 16.62 24.11 17.1 23.63L19.31 21.42C19.63 21.1 20.2 21.1 20.53 21.42L24.79 25.68C25.12 26.02 25.12 26.56 24.79 26.9Z" fill="#FFFFFF" fill-opacity="1.000000" fill-rule="nonzero"/>
		<path id="Vector" d="M19.58 5.99C19.58 6.47 19.19 6.85 18.71 6.85C18.24 6.85 17.85 6.47 17.85 5.99C17.85 5.51 18.24 5.13 18.71 5.13C19.19 5.13 19.58 5.51 19.58 5.99Z" fill="#FFFFFF" fill-opacity="1.000000" fill-rule="evenodd"/>
		<path id="Vector" d="M23.46 5.99C23.46 6.47 23.07 6.85 22.59 6.85C22.12 6.85 21.73 6.47 21.73 5.99C21.73 5.51 22.12 5.13 22.59 5.13C23.07 5.13 23.46 5.51 23.46 5.99Z" fill="#FFFFFF" fill-opacity="1.000000" fill-rule="evenodd"/>
		<path id="Vector" d="M27.33 5.99C27.33 6.47 26.95 6.85 26.47 6.85C26 6.85 25.61 6.47 25.61 5.99C25.61 5.51 26 5.13 26.47 5.13C26.95 5.13 27.33 5.51 27.33 5.99Z" fill="#FFFFFF" fill-opacity="1.000000" fill-rule="evenodd"/>
	</g>
</svg>
