<svg width="31" height="31" viewBox="0 0 31 31" fill="none" xmlns="http://www.w3.org/2000/svg">
<g clip-path="url(#clip0_13_606)">
<path d="M28.4169 0.0017395H16.783C15.3588 0.0017395 14.2 1.16056 14.2 2.58478V9.39975C14.2 10.5228 14.9197 11.4825 15.9203 11.8347V15.2754C16.0429 16.521 17.2119 16.0513 17.3803 15.8931L21.4131 11.9828H28.417C29.8412 11.9828 31 10.824 31 9.39975V2.58478C31 1.16048 29.8412 0.0017395 28.4169 0.0017395ZM29.2797 9.39975C29.2797 9.87449 28.8968 10.2625 28.417 10.2625H21.066C20.8414 10.2625 20.627 10.3492 20.4687 10.5075L17.6458 13.2437V11.1252C17.6458 10.6505 17.2629 10.2625 16.7831 10.2625C16.3083 10.2625 15.9204 9.87963 15.9204 9.39983V2.58478C15.9204 2.11004 16.3033 1.72208 16.7831 1.72208H28.417C28.8917 1.72208 29.2797 2.10499 29.2797 2.58478V9.39975Z" fill="white"/>
<path d="M26.0177 24.4692L21.7551 20.2118C21.2651 19.7217 19.5805 18.7314 18.1 20.2118L15.8896 22.4222C15.7416 22.5703 15.5017 22.6468 15.1699 22.6468C14.1897 22.6468 12.4439 21.8964 10.7695 20.2322C9.73828 19.201 8.93173 18.0013 8.56422 16.9395C8.27323 16.0972 8.27837 15.4132 8.57441 15.1171L10.7848 12.9067C11.7904 11.9011 11.7904 10.2572 10.7848 9.25161L6.53252 4.98399C6.04245 4.49393 4.38844 3.47299 2.87743 4.98399L1.47872 6.38279C-0.185484 8.04699 -0.45602 10.8444 0.723173 14.2443C1.83604 17.4399 4.10259 20.8652 7.12468 23.8822C11.5097 28.2672 16.6759 30.9983 20.5964 30.9983C22.2606 30.9983 23.6542 30.4878 24.619 29.523L26.0177 28.1243C27.0234 27.1187 27.0234 25.4749 26.0177 24.4692ZM24.7925 26.9042L23.3938 28.3029C22.7455 28.9512 21.8011 29.2779 20.5861 29.2779C17.1557 29.2779 12.3469 26.6847 8.33451 22.662C5.49625 19.8238 3.37263 16.6332 2.34655 13.6826C1.40725 10.972 1.53486 8.75642 2.69368 7.5976L4.0924 6.19888C4.58246 5.70882 5.14912 6.0355 5.3125 6.19888L9.56993 10.4563C9.90687 10.7933 9.90687 11.3395 9.56993 11.6764L7.35952 13.8869C6.55802 14.6883 6.41509 15.9697 6.94093 17.4909C7.40035 18.8079 8.32432 20.2118 9.55461 21.4369C11.3617 23.2441 13.5109 24.362 15.1699 24.362C15.9612 24.362 16.6299 24.1118 17.1047 23.6371L19.3151 21.4267C19.6367 21.1051 20.2084 21.1051 20.5352 21.4267L24.7926 25.6841C25.1295 26.0262 25.1295 26.5673 24.7925 26.9042Z" fill="white"/>
<path d="M18.7177 6.85752C19.1941 6.85752 19.5804 6.47128 19.5804 5.99483C19.5804 5.51837 19.1941 5.13213 18.7177 5.13213C18.2412 5.13213 17.855 5.51837 17.855 5.99483C17.855 6.47128 18.2412 6.85752 18.7177 6.85752Z" fill="white"/>
<path d="M22.5973 6.85752C23.0738 6.85752 23.46 6.47128 23.46 5.99483C23.46 5.51837 23.0738 5.13213 22.5973 5.13213C22.1209 5.13213 21.7346 5.51837 21.7346 5.99483C21.7346 6.47128 22.1209 6.85752 22.5973 6.85752Z" fill="white"/>
<path d="M26.4772 6.85752C26.9537 6.85752 27.3399 6.47128 27.3399 5.99483C27.3399 5.51837 26.9537 5.13213 26.4772 5.13213C26.0007 5.13213 25.6145 5.51837 25.6145 5.99483C25.6145 6.47128 26.0007 6.85752 26.4772 6.85752Z" fill="white"/>
</g>
<defs>
<clipPath id="clip0_13_606">
<rect width="31" height="31" fill="white"/>
</clipPath>
</defs>
</svg>
