<svg width="22.000000" height="26.000000" viewBox="0 0 22 26" fill="none" xmlns="http://www.w3.org/2000/svg" xmlns:xlink="http://www.w3.org/1999/xlink">
	<desc>
			Created with Pixso.
	</desc>
	<defs/>
	<path id="Vector" d="M20.08 7.36L20.08 20.69C20.08 21.65 19.7 22.56 19.03 23.23C18.36 23.9 17.45 24.28 16.49 24.28L4.58 24.28C3.63 24.28 2.72 23.9 2.05 23.23C1.37 22.56 1 21.65 1 20.69L1 7.36L20.08 7.36Z" stroke="#000000" stroke-opacity="1.000000" stroke-width="2.000000"/>
	<path id="Vector" d="M6.29 10.54L6.29 5.24C6.29 4.11 6.74 3.03 7.54 2.24C8.33 1.44 9.41 1 10.54 1C11.66 1 12.74 1.44 13.54 2.24C14.34 3.03 14.78 4.11 14.78 5.24L14.78 10.54" stroke="#000000" stroke-opacity="1.000000" stroke-width="2.000000"/>
</svg>
