<svg width="31.000000" height="23.000000" viewBox="0 0 31 23" fill="none" xmlns="http://www.w3.org/2000/svg" xmlns:xlink="http://www.w3.org/1999/xlink">
	<desc>
			Created with Pixso.
	</desc>
	<defs/>
	<path id="Vector" d="M12.57 7.33C12.41 7.33 12.26 7.4 12.15 7.51L8.99 10.73L7.04 8.75C6.49 8.17 5.61 9.06 6.18 9.62L8.56 12.04C8.8 12.28 9.18 12.28 9.42 12.04L13.01 8.39C13.41 7.99 13.12 7.33 12.57 7.33L12.57 7.33ZM23.4 15.88C21.75 15.88 20.4 17.26 20.4 18.94C20.4 20.62 21.75 22 23.4 22C25.04 22 26.4 20.62 26.4 18.94C26.4 17.26 25.04 15.88 23.4 15.88ZM23.4 17.11C24.4 17.11 25.2 17.92 25.2 18.94C25.2 19.96 24.4 20.77 23.4 20.77C22.39 20.77 21.59 19.96 21.59 18.94C21.59 17.92 22.39 17.11 23.4 17.11ZM7.79 15.88C6.15 15.88 4.79 17.26 4.79 18.94C4.79 20.62 6.15 22 7.79 22C9.45 22 10.79 20.62 10.79 18.94C10.79 17.26 9.45 15.88 7.79 15.88ZM7.79 17.11C8.8 17.11 9.59 17.92 9.59 18.94C9.59 19.96 8.8 20.77 7.79 20.77C6.79 20.77 6 19.96 6 18.94C6 17.92 6.79 17.11 7.79 17.11ZM1.79 0C0.81 0 0 0.82 0 1.83L0 15.27C0 16.28 0.81 17.11 1.79 17.11L4.2 17.11C5.01 17.12 5.01 15.87 4.2 15.88L1.79 15.88C1.45 15.88 1.2 15.62 1.2 15.27L1.2 1.83C1.2 1.48 1.45 1.22 1.79 1.22L17.4 1.22C17.74 1.22 18 1.48 18 1.83L18 15.88L11.4 15.88C10.6 15.88 10.62 17.12 11.4 17.11L19.79 17.11C20.59 17.11 20.58 15.88 19.79 15.88L19.2 15.88L19.2 4.88L24.27 4.88L28.79 12.09L28.79 15.27C28.79 15.62 28.54 15.88 28.2 15.88L27 15.88C26.21 15.88 26.21 17.11 27 17.11L28.2 17.11C29.18 17.11 30 16.28 30 15.27L30 11.91C30 11.8 29.96 11.68 29.9 11.58L25.1 3.94C24.99 3.77 24.8 3.66 24.59 3.66L19.2 3.66L19.2 1.83C19.2 0.82 18.38 0 17.4 0L1.79 0Z" fill="#000000" fill-opacity="1.000000" fill-rule="nonzero"/>
	<path id="Vector" d="M12.15 7.51L8.99 10.73L7.04 8.75C6.49 8.17 5.61 9.06 6.18 9.62L8.56 12.04C8.8 12.28 9.18 12.28 9.42 12.04L13.01 8.39C13.41 7.99 13.12 7.33 12.57 7.33L12.57 7.33C12.41 7.33 12.26 7.4 12.15 7.51ZM20.4 18.94C20.4 20.62 21.75 22 23.4 22C25.04 22 26.4 20.62 26.4 18.94C26.4 17.26 25.04 15.88 23.4 15.88C21.75 15.88 20.4 17.26 20.4 18.94ZM25.2 18.94C25.2 19.96 24.4 20.77 23.4 20.77C22.39 20.77 21.59 19.96 21.59 18.94C21.59 17.92 22.39 17.11 23.4 17.11C24.4 17.11 25.2 17.92 25.2 18.94ZM4.79 18.94C4.79 20.62 6.15 22 7.79 22C9.45 22 10.79 20.62 10.79 18.94C10.79 17.26 9.45 15.88 7.79 15.88C6.15 15.88 4.79 17.26 4.79 18.94ZM9.59 18.94C9.59 19.96 8.8 20.77 7.79 20.77C6.79 20.77 6 19.96 6 18.94C6 17.92 6.79 17.11 7.79 17.11C8.8 17.11 9.59 17.92 9.59 18.94ZM0 1.83L0 15.27C0 16.28 0.81 17.11 1.79 17.11L4.2 17.11C5.01 17.12 5.01 15.87 4.2 15.88L1.79 15.88C1.45 15.88 1.2 15.62 1.2 15.27L1.2 1.83C1.2 1.48 1.45 1.22 1.79 1.22L17.4 1.22C17.74 1.22 18 1.48 18 1.83L18 15.88L11.4 15.88C10.6 15.88 10.62 17.12 11.4 17.11L19.79 17.11C20.59 17.11 20.58 15.88 19.79 15.88L19.2 15.88L19.2 4.88L24.27 4.88L28.79 12.09L28.79 15.27C28.79 15.62 28.54 15.88 28.2 15.88L27 15.88C26.21 15.88 26.21 17.11 27 17.11L28.2 17.11C29.18 17.11 30 16.28 30 15.27L30 11.91C30 11.8 29.96 11.68 29.9 11.58L25.1 3.94C24.99 3.77 24.8 3.66 24.59 3.66L19.2 3.66L19.2 1.83C19.2 0.82 18.38 0 17.4 0L1.79 0C0.81 0 0 0.82 0 1.83Z" stroke="#000000" stroke-opacity="1.000000" stroke-width="1.000000"/>
</svg>
