<svg width="16.000000" height="20.000000" viewBox="0 0 16 20" fill="none" xmlns="http://www.w3.org/2000/svg" xmlns:xlink="http://www.w3.org/1999/xlink">
	<desc>
			Created with Pixso.
	</desc>
	<defs/>
	<path id="Vector" d="M-0.73 3C-0.66 1.84 -0.1 1.64 1.18 1.6C2.29 1.55 3.75 1.64 5.45 1.57C5.75 -0.83 9.15 -0.4 9.32 1.57C11.08 1.61 12.53 1.56 13.96 1.62C15.02 1.66 15.5 2.01 15.6 3L-0.73 3Z" fill="#848484" fill-opacity="1.000000" fill-rule="evenodd"/>
	<path id="Vector" d="M0.44 4.52L14.42 4.52C14.2 9.11 14 13.26 13.78 17.85C13.71 18.93 13.05 19.04 12.01 19.06L2.63 19.06C1.7 19.07 1.24 18.71 1.16 17.97L0.44 4.52Z" fill="#848484" fill-opacity="1.000000" fill-rule="evenodd"/>
	<path id="Vector" d="M2.81 6.7L2.79 6.68C2.77 6.12 3.19 5.66 3.75 5.64C4.31 5.62 4.77 6.05 4.79 6.61L4.77 6.63L2.81 6.7ZM5.12 16.35L5.14 16.37C5.16 16.93 4.74 17.39 4.18 17.41C3.62 17.43 3.16 17.01 3.14 16.45L3.16 16.43L5.12 16.35Z" fill="#848484" fill-opacity="1.000000" fill-rule="nonzero"/>
	<path id="Vector" d="M3.79 6.64L4.14 16.41" stroke="#FFFFFF" stroke-opacity="1.000000" stroke-width="2.000000" stroke-linecap="round"/>
	<path id="Vector" d="M6.58 6.67L6.56 6.65C6.55 6.09 6.99 5.64 7.55 5.64C8.11 5.64 8.55 6.07 8.56 6.63L8.54 6.65L6.58 6.67ZM8.6 16.39L8.62 16.41C8.62 16.97 8.19 17.41 7.63 17.41C7.07 17.42 6.62 16.98 6.62 16.42L6.64 16.4L8.6 16.39Z" fill="#848484" fill-opacity="1.000000" fill-rule="nonzero"/>
	<path id="Vector" d="M7.56 6.64L7.62 16.41" stroke="#FFFFFF" stroke-opacity="1.000000" stroke-width="2.000000" stroke-linecap="round"/>
	<path id="Vector" d="M10.37 6.64L10.35 6.62C10.36 6.06 10.81 5.63 11.37 5.64C11.93 5.65 12.36 6.1 12.35 6.66L12.33 6.68L10.37 6.64ZM12.16 16.41L12.18 16.43C12.17 16.99 11.72 17.42 11.16 17.41C10.6 17.4 10.17 16.95 10.18 16.39L10.2 16.37L12.16 16.41Z" fill="#848484" fill-opacity="1.000000" fill-rule="nonzero"/>
	<path id="Vector" d="M11.35 6.64L11.18 16.41" stroke="#FFFFFF" stroke-opacity="1.000000" stroke-width="2.000000" stroke-linecap="round"/>
</svg>
